<?xml version="1.0"?>
<svg xmlns="http://www.w3.org/2000/svg" xmlns:xlink="http://www.w3.org/1999/xlink" xmlns:svgjs="http://svgjs.com/svgjs" version="1.1" width="512" height="512" x="0" y="0" viewBox="0 0 512 512" style="enable-background:new 0 0 512 512" xml:space="preserve" class=""><g>
<circle xmlns="http://www.w3.org/2000/svg" style="" cx="256" cy="256" r="256" fill="#f0f0f0" data-original="#f0f0f0" class=""/>
<path xmlns="http://www.w3.org/2000/svg" d="M155.826,166.957h340.25C459.906,69.472,366.07,0,256,0C185.306,0,121.313,28.659,74.989,74.989L155.826,166.957z" fill="#000000" data-original="#000000" style="" class=""/>
<path xmlns="http://www.w3.org/2000/svg" style="" d="M155.826,345.043h340.25C459.906,442.528,366.07,512,256,512  c-70.694,0-134.687-28.659-181.011-74.989L155.826,345.043z" fill="#008000" data-original="#6da544" class=""/>
<path xmlns="http://www.w3.org/2000/svg" style="" d="M74.98,74.98c-99.974,99.974-99.974,262.065,0,362.04C116.293,395.707,156.026,355.974,256,256  L74.98,74.98z" fill="#ff0000" data-original="#d80027" class=""/>
<polygon xmlns="http://www.w3.org/2000/svg" style="" points="101.605,200.348 115.654,229.727 147.383,222.394 133.173,251.695 158.688,271.929   126.921,279.088 127.009,311.652 101.605,291.279 76.2,311.652 76.289,279.088 44.522,271.929 70.036,251.695 55.828,222.394   87.555,229.727 " fill="#f0f0f0" data-original="#f0f0f0" class=""/>
<g xmlns="http://www.w3.org/2000/svg">
</g>
<g xmlns="http://www.w3.org/2000/svg">
</g>
<g xmlns="http://www.w3.org/2000/svg">
</g>
<g xmlns="http://www.w3.org/2000/svg">
</g>
<g xmlns="http://www.w3.org/2000/svg">
</g>
<g xmlns="http://www.w3.org/2000/svg">
</g>
<g xmlns="http://www.w3.org/2000/svg">
</g>
<g xmlns="http://www.w3.org/2000/svg">
</g>
<g xmlns="http://www.w3.org/2000/svg">
</g>
<g xmlns="http://www.w3.org/2000/svg">
</g>
<g xmlns="http://www.w3.org/2000/svg">
</g>
<g xmlns="http://www.w3.org/2000/svg">
</g>
<g xmlns="http://www.w3.org/2000/svg">
</g>
<g xmlns="http://www.w3.org/2000/svg">
</g>
<g xmlns="http://www.w3.org/2000/svg">
</g>
<script/></g></svg>
