<svg xmlns="http://www.w3.org/2000/svg" width="231.257" height="206.687" viewBox="0 0 231.257 206.687">
  <g id="Group_637" data-name="Group 637" transform="translate(-9098.672 3879.437)">
    <ellipse id="Ellipse_5" data-name="Ellipse 5" cx="25" cy="38.5" rx="25" ry="38.5" transform="translate(9146 -3876)"/>
    <ellipse id="Ellipse_6" data-name="Ellipse 6" cx="25" cy="38.5" rx="25" ry="38.5" transform="translate(9229.33 -3879.437) rotate(9)"/>
    <ellipse id="Ellipse_7" data-name="Ellipse 7" cx="25" cy="38.5" rx="25" ry="38.5" transform="matrix(0.999, -0.035, 0.035, 0.999, 9098.672, -3805.104)"/>
    <ellipse id="Ellipse_8" data-name="Ellipse 8" cx="25" cy="38.5" rx="25" ry="38.5" transform="translate(9284.613 -3812.958) rotate(25)"/>
    <path id="Path_2066" data-name="Path 2066" d="M65.281.383,72.4-.856c3.232,0,13.134,3.831,13.134,3.831s15.452,13.77,15.452,18.27l13.551,19.489c50.384,34.182,21.58,51.739,18.462,51.739H117.815L104.33,90.552,96.394,88.2l-15.54-2.49H69.111L55.955,88.2,45.05,91.99l-4.312,1.15-4.46,1.11H23.8a29.554,29.554,0,0,1-8.775-1.11c-1.69-.5-4.017-2.2-5.473-2.588-1.23-.327-4.387-2.846-5.683-3.852C-1.62,82.465-.344,70.1-.344,65.653A40.411,40.411,0,0,1,3.865,55.76c3-5,9.261-9.05,9.261-9.05s4.812-2.977,13.26-11.155S42.991,17.9,46.916,14C57.144,3.837,62.217.383,65.281.383Z" transform="translate(9137 -3767)"/>
  </g>
</svg>
